# xmcd CD database file
#
# Track frame offsets:
#	150
#	20482
#	43205
#	63491
#	82592
#	93041
#	116067
#	126798
#	142326
#	154651
#	179304
#	195279
#	211590
#	238867
#	251908
#	272343
#
# Disc length: 3866 seconds
#
# Revision: 1
# Processed by: cddbd v1.5.2PL0 Copyright (c) Steve Scherf et al.
# Submitted via: CDex 1.51
#
DISCID=d60f1810
DTITLE=Various Artist - L'Usage du Luth  (Serge Bouzouki - Paddy Lemercier)
DYEAR=2005
DGENRE=Luth
TTITLE0=Glabroscz  (S. Renard)
TTITLE1=Niaphros  (P. Lemercier)
TTITLE2=Khyber Pass  (S. Renard)
TTITLE3=Le Plateau du Nord  (S. Renard)
TTITLE4=Karpates Express  (S. Renard)
TTITLE5=Beau temps sur Kibboutz  (S. Renard)
TTITLE6=Varna  (P. Lemercier)
TTITLE7=Rubayat  (S. Renard)
TTITLE8=Bicephale Macedoine  (S. Renard)
TTITLE9=Tafraout  (P. Lemercier)
TTITLE10=Ticina  (Traditionnel)
TTITLE11=Kafir Khale  (S. Renard)
TTITLE12=Le territoire à Cigognes  (S. Renard)
TTITLE13=Jaipur  (P. Lemercier)
TTITLE14=Le Point de Non Retour  (S. Renard)
TTITLE15=Les Murailles d'Alep  (P. Lemercier)
EXTD=YEAR: 2005
EXTT0=
EXTT1=
EXTT2=
EXTT3=
EXTT4=
EXTT5=
EXTT6=
EXTT7=
EXTT8=
EXTT9=
EXTT10=
EXTT11=
EXTT12=
EXTT13=
EXTT14=
EXTT15=
PLAYORDER=
